<mxfile host="app.diagrams.net" modified="2023-07-17T22:21:44.696Z" agent="Mozilla/5.0 (Windows NT 10.0; Win64; x64) AppleWebKit/537.36 (KHTML, like Gecko) Chrome/114.0.0.0 Safari/537.36" version="21.6.2" etag="m5E4aTiWQBJWhqpt4NXf" type="github">
  <diagram name="Page-1" id="1V0CLLzbelv8tu37RJcn">
    <mxGraphModel>
      <root>
        <mxCell id="0" />
        <mxCell id="1" parent="0" />
      </root>
    </mxGraphModel>
  </diagram>
</mxfile>
